{"title":"Furious Seven (2015) Extended Cut 720p Blu-Ray x264 [Dual-Audio]","uid":12399415,"size":1594084272,"categoryP":"video","categoryS":"movies","magnet":"?xt=urn:btih:a28c1861e81bf5aa9165c3368f88409a09525980&amp;dn=Furious+Seven+%282015%29+Extended+Cut+720p+Blu-Ray+x264+%5BDual-Audio%5D&amp;tr=udp%3A%2F%2Ftracker.openbittorrent.com%3A80&amp;tr=udp%3A%2F%2Fopen.demonii.com%3A1337&amp;tr=udp%3A%2F%2Ftracker.coppersurfer.tk%3A6969&amp;tr=udp%3A%2F%2Fexodus.desync.com%3A6969","seeders":12,"leechers":10,"uploader":"praneet_gupta777","files":2,"time":1441996132,"description":"[center]\n[b][size=7]Furious Seven (2015) Extended Cut 720p Blu-Ray x264 [Dual-Audio] [English 5.1 + Hindi 5.1] Esubs [PKG][/size][/b]\n\n\n\n\n\n[img]http://extraimago.com/images/2015/09/11/2710cb.jpg[/img]\n\n\n\n[img]http://extraimago.com/images/2015/09/11/Untitled.png[/img]\n\n\n\n\n[img]http://img9.uploadhouse.com/fileuploads/15981/15981250a2a3770f9f004bcdf00afac92833ebdb.png[/img]\n\n\n[quote]\n\n\nGeneral\nUnique ID                   : 238636649799355600608847457369374007853 (0xB387BF3946295082BCC5989EB753222D)\nComplete name               : G:Furious Seven (2015) Extended Cut 720p Blu-Ray x264 [Dual-Audio] [English 5.1 + Hindi 5.1] Esubs [PKG]Furious Seven (2015) Extended Cut 720p Blu-Ray x264 [Dual-Audio] [English 5.1 + Hindi 5.1] Esubs [PKG].mkv\nFormat                      : Matroska\nFormat version              : Version 4 / Version 2\nFile size                   : 1.48 GiB\nDuration                    : 2h 19mn\nOverall bit rate            : 1 515 Kbps\nMovie name                  : Furious Seven (2015) Extended Cut 720p Blu-Ray x264 [Dual-Audio] [English 5.1 + Hindi 5.1] Esubs [PKG]\nEncoded date                : UTC 2015-08-19 12:51:01\nWriting application         : mkvmerge v7.7.0 ('Six Voices') 64bit built on Feb 28 2015 23:39:33\nWriting library             : libebml v1.3.1 + libmatroska v1.4.2\nDURATION                    : 02:19:54.848000000\nNUMBER_OF_FRAMES            : 262339\nNUMBER_OF_BYTES             : 201476352\n\n\nVideo\nID                          : 1\nFormat                      : AVC\nFormat/Info                 : Advanced Video Codec\nFormat profile              : &lt;a class=&quot;__cf_email__&quot; href=&quot;/cdn-cgi/l/email-protection&quot; data-cfemail=&quot;7139181619313d455f40&quot;&gt;[email&amp;#160;protected]&lt;/a&gt;&lt;script data-cfhash='f9e31' type=&quot;text/javascript&quot;&gt;\n/* &lt;![CDATA[ */!function(){try{var t=&quot;currentScript&quot;in document?document.currentScript:function(){for(var t=document.getElementsByTagName(&quot;script&quot;),e=t.length;e--;)if(t[e].getAttribute(&quot;data-cfhash&quot;))return t[e]}();if(t&amp;&amp;t.previousSibling){var e,r,n,i,c=t.previousSibling,a=c.getAttribute(&quot;data-cfemail&quot;);if(a){for(e=&quot;&quot;,r=parseInt(a.substr(0,2),16),n=2;a.length-n;n+=2)i=parseInt(a.substr(n,2),16)^r,e+=String.fromCharCode(i);e=document.createTextNode(e),c.parentNode.replaceChild(e,c)}t.parentNode.removeChild(t);}}catch(u){}}()/* ]]&gt; */&lt;/script&gt;\nFormat settings, CABAC      : Yes\nFormat settings, ReFrames   : 9 frames\nCodec ID                    : V_MPEG4/ISO/AVC\nDuration                    : 2h 19mn\nBit rate                    : 1 130 Kbps\nWidth                       : 1 280 pixels\nHeight                      : 536 pixels\nDisplay aspect ratio        : 2.40:1\nFrame rate mode             : Constant\nFrame rate                  : 23.976 fps\nColor space                 : YUV\nChroma subsampling          : 4:2:0\nBit depth                   : 8 bits\nScan type                   : Progressive\nBits/(Pixel*Frame)          : 0.069\nStream size                 : 1.08 GiB (73%)\nTitle                       : [PKG]\nWriting library             : x264 core 146 r2538 121396c\nDefault                     : Yes\nForced                      : No\n\nAudio #1\nID                          : 3\nFormat                      : AC-3\nFormat/Info                 : Audio Coding 3\nMode extension              : CM (complete main)\nFormat settings, Endianness : Big\nCodec ID                    : A_AC3\nDuration                    : 2h 19mn\nBit rate mode               : Constant\nBit rate                    : 192 Kbps\nChannel(s)                  : 6 channels\nChannel positions           : Front: L C R, Side: L R, LFE\nSampling rate               : 48.0 KHz\nBit depth                   : 16 bits\nCompression mode            : Lossy\nStream size                 : 192 MiB (13%)\nTitle                       : [PKG]\nLanguage                    : Hindi\nDefault                     : Yes\nForced                      : Yes\n\nAudio #2\nID                          : 4\nFormat                      : AC-3\nFormat/Info                 : Audio Coding 3\nMode extension              : CM (complete main)\nFormat settings, Endianness : Big\nCodec ID                    : A_AC3\nDuration                    : 2h 19mn\nBit rate mode               : Constant\nBit rate                    : 192 Kbps\nChannel(s)                  : 6 channels\nChannel positions           : Front: L C R, Side: L R, LFE\nSampling rate               : 48.0 KHz\nBit depth                   : 16 bits\nCompression mode            : Lossy\nDelay relative to video     : 78ms\nStream size                 : 192 MiB (13%)\nTitle                       : [PKG]\nLanguage                    : English\nDefault                     : No\nForced                      : No\n\nText\nID                          : 2\nFormat                      : UTF-8\nCodec ID                    : S_TEXT/UTF8\nCodec ID/Info               : UTF-8 Plain Text\nTitle                       : [PKG]\nLanguage                    : English\nDefault                     : Yes\nForced                      : Yes\n\n\n[color=navy][size=6][b]SAMPLE WITHIN TORRENT[/b][/size][/color]\n\n\n\n\n\n[img]http://icons.iconarchive.com/icons/tribalmarkings/colorflow/256/screenshots-icon.png[/img]\n\n\n\n[img]http://extraimago.com/images/2015/09/11/FuriousSeven2015ExtendedCut720pBlu-Rayx264Dual-AudioEnglish5.1Hindi5.1EsubsPKG.mkv_thumbs_2015.09.11_19.27.27.jpg[/img]\n\n\n\n[/center]","torrent":{"xt":"urn:btih:a28c1861e81bf5aa9165c3368f88409a09525980","amp;dn":"Furious+Seven+%282015%29+Extended+Cut+720p+Blu-Ray+x264+%5BDual-Audio%5D","amp;tr":["udp%3A%2F%2Ftracker.openbittorrent.com%3A80","udp%3A%2F%2Fopen.demonii.com%3A1337","udp%3A%2F%2Ftracker.coppersurfer.tk%3A6969","udp%3A%2F%2Fexodus.desync.com%3A6969"],"infoHash":"a28c1861e81bf5aa9165c3368f88409a09525980","infoHashBuffer":{"type":"Buffer","data":[162,140,24,97,232,27,245,170,145,101,195,54,143,136,64,154,9,82,89,128]},"announce":[],"urlList":[]}}